<svg width="107" height="24" viewBox="0 0 107 24" fill="none" xmlns="http://www.w3.org/2000/svg">
<path d="M57.2344 15.7734V17H52.5156V15.7734H57.2344ZM52.7734 5.625V17H51.3359V5.625H52.7734ZM65.8281 10.3281V12.3047C65.8281 13.1068 65.7396 13.8125 65.5625 14.4219C65.3906 15.026 65.138 15.5312 64.8047 15.9375C64.4714 16.3438 64.0703 16.6484 63.6016 16.8516C63.1328 17.0547 62.6042 17.1562 62.0156 17.1562C61.4479 17.1562 60.9297 17.0547 60.4609 16.8516C59.9922 16.6484 59.5885 16.3438 59.25 15.9375C58.9115 15.5312 58.6484 15.026 58.4609 14.4219C58.2786 13.8125 58.1875 13.1068 58.1875 12.3047V10.3281C58.1875 9.52604 58.2786 8.82292 58.4609 8.21875C58.6432 7.60938 58.9036 7.10156 59.2422 6.69531C59.5807 6.28906 59.9844 5.98438 60.4531 5.78125C60.9219 5.57292 61.4401 5.46875 62.0078 5.46875C62.5964 5.46875 63.125 5.57292 63.5938 5.78125C64.0677 5.98438 64.4688 6.28906 64.7969 6.69531C65.1302 7.10156 65.3854 7.60938 65.5625 8.21875C65.7396 8.82292 65.8281 9.52604 65.8281 10.3281ZM64.4062 12.3047V10.3125C64.4062 9.6875 64.3542 9.15104 64.25 8.70312C64.1458 8.25 63.9922 7.88021 63.7891 7.59375C63.5859 7.30729 63.3359 7.09635 63.0391 6.96094C62.7422 6.82031 62.3984 6.75 62.0078 6.75C61.638 6.75 61.3047 6.82031 61.0078 6.96094C60.7161 7.09635 60.4661 7.30729 60.2578 7.59375C60.0495 7.88021 59.888 8.25 59.7734 8.70312C59.6641 9.15104 59.6094 9.6875 59.6094 10.3125V12.3047C59.6094 12.9349 59.6641 13.4766 59.7734 13.9297C59.888 14.3776 60.0495 14.7474 60.2578 15.0391C60.4714 15.3255 60.7266 15.5391 61.0234 15.6797C61.3203 15.8151 61.651 15.8828 62.0156 15.8828C62.4062 15.8828 62.75 15.8151 63.0469 15.6797C63.349 15.5391 63.599 15.3255 63.7969 15.0391C64 14.7474 64.151 14.3776 64.25 13.9297C64.3542 13.4766 64.4062 12.9349 64.4062 12.3047ZM75.1797 11.3359V15.5781C75.0547 15.7448 74.8646 15.9531 74.6094 16.2031C74.3594 16.4531 74.0078 16.6745 73.5547 16.8672C73.1016 17.0599 72.5078 17.1562 71.7734 17.1562C71.1849 17.1562 70.6458 17.0573 70.1562 16.8594C69.6719 16.6615 69.2526 16.3646 68.8984 15.9688C68.5495 15.5677 68.2786 15.0703 68.0859 14.4766C67.8932 13.8776 67.7969 13.1771 67.7969 12.375V10.2422C67.7969 9.44531 67.8776 8.7474 68.0391 8.14844C68.2005 7.54948 68.4401 7.05208 68.7578 6.65625C69.0807 6.26042 69.4792 5.96354 69.9531 5.76562C70.4323 5.56771 70.9896 5.46875 71.625 5.46875C72.3594 5.46875 72.9844 5.60677 73.5 5.88281C74.0156 6.15885 74.4141 6.55729 74.6953 7.07812C74.9818 7.59896 75.1432 8.22396 75.1797 8.95312H73.7422C73.7057 8.48438 73.6068 8.08333 73.4453 7.75C73.2839 7.41146 73.0547 7.15365 72.7578 6.97656C72.4609 6.79427 72.0833 6.70312 71.625 6.70312C71.1875 6.70312 70.8177 6.77604 70.5156 6.92188C70.2135 7.06771 69.9661 7.28646 69.7734 7.57812C69.5859 7.86979 69.4479 8.23698 69.3594 8.67969C69.276 9.1224 69.2344 9.63802 69.2344 10.2266V12.375C69.2344 12.9792 69.2943 13.5052 69.4141 13.9531C69.5339 14.401 69.7031 14.7708 69.9219 15.0625C70.1458 15.3542 70.4141 15.5729 70.7266 15.7188C71.0391 15.8594 71.3906 15.9297 71.7812 15.9297C72.224 15.9297 72.5729 15.8828 72.8281 15.7891C73.0833 15.6953 73.2786 15.5885 73.4141 15.4688C73.5547 15.349 73.6667 15.2526 73.75 15.1797V12.5547H71.6641V11.3359H75.1797ZM88.5781 10.3281V12.3047C88.5781 13.1068 88.4896 13.8125 88.3125 14.4219C88.1406 15.026 87.888 15.5312 87.5547 15.9375C87.2214 16.3438 86.8203 16.6484 86.3516 16.8516C85.8828 17.0547 85.3542 17.1562 84.7656 17.1562C84.1979 17.1562 83.6797 17.0547 83.2109 16.8516C82.7422 16.6484 82.3385 16.3438 82 15.9375C81.6615 15.5312 81.3984 15.026 81.2109 14.4219C81.0286 13.8125 80.9375 13.1068 80.9375 12.3047V10.3281C80.9375 9.52604 81.0286 8.82292 81.2109 8.21875C81.3932 7.60938 81.6536 7.10156 81.9922 6.69531C82.3307 6.28906 82.7344 5.98438 83.2031 5.78125C83.6719 5.57292 84.1901 5.46875 84.7578 5.46875C85.3464 5.46875 85.875 5.57292 86.3438 5.78125C86.8177 5.98438 87.2188 6.28906 87.5469 6.69531C87.8802 7.10156 88.1354 7.60938 88.3125 8.21875C88.4896 8.82292 88.5781 9.52604 88.5781 10.3281ZM87.1562 12.3047V10.3125C87.1562 9.6875 87.1042 9.15104 87 8.70312C86.8958 8.25 86.7422 7.88021 86.5391 7.59375C86.3359 7.30729 86.0859 7.09635 85.7891 6.96094C85.4922 6.82031 85.1484 6.75 84.7578 6.75C84.388 6.75 84.0547 6.82031 83.7578 6.96094C83.4661 7.09635 83.2161 7.30729 83.0078 7.59375C82.7995 7.88021 82.638 8.25 82.5234 8.70312C82.4141 9.15104 82.3594 9.6875 82.3594 10.3125V12.3047C82.3594 12.9349 82.4141 13.4766 82.5234 13.9297C82.638 14.3776 82.7995 14.7474 83.0078 15.0391C83.2214 15.3255 83.4766 15.5391 83.7734 15.6797C84.0703 15.8151 84.401 15.8828 84.7656 15.8828C85.1562 15.8828 85.5 15.8151 85.7969 15.6797C86.099 15.5391 86.349 15.3255 86.5469 15.0391C86.75 14.7474 86.901 14.3776 87 13.9297C87.1042 13.4766 87.1562 12.9349 87.1562 12.3047ZM96.1562 5.625H97.5938V13.6328C97.5938 14.487 97.4297 15.1719 97.1016 15.6875C96.7734 16.2031 96.3411 16.5781 95.8047 16.8125C95.2734 17.0417 94.7005 17.1562 94.0859 17.1562C93.4297 17.1562 92.8385 17.0417 92.3125 16.8125C91.7865 16.5781 91.3672 16.2031 91.0547 15.6875C90.7474 15.1719 90.5938 14.487 90.5938 13.6328V5.625H92.0234V13.6328C92.0234 14.2266 92.1068 14.6901 92.2734 15.0234C92.4453 15.3568 92.6849 15.5911 92.9922 15.7266C93.3047 15.862 93.6693 15.9297 94.0859 15.9297C94.5078 15.9297 94.8724 15.862 95.1797 15.7266C95.4922 15.5911 95.7318 15.3568 95.8984 15.0234C96.0703 14.6901 96.1562 14.2266 96.1562 13.6328V5.625ZM103.445 5.625V17H102.023V5.625H103.445ZM106.438 5.625V6.85938H99.0391V5.625H106.438Z" fill="#707C97"/>
<path fill-rule="evenodd" clip-rule="evenodd" d="M13 12C13 12.553 12.552 13 12 13C11.448 13 11 12.553 11 12V2C11 1.447 11.448 1 12 1C12.552 1 13 1.447 13 2V12ZM15.2389 3.5413C15.4919 3.0503 16.0959 2.8593 16.5859 3.1113C19.9249 4.8383 21.9999 8.2433 21.9999 12.0003C21.9999 17.5133 17.5139 22.0003 11.9999 22.0003C6.48588 22.0003 1.99988 17.5133 1.99988 12.0003C1.99988 8.2433 4.07488 4.8383 7.41488 3.1113C7.90388 2.8583 8.50788 3.0493 8.76188 3.5413C9.01588 4.0313 8.82288 4.6343 8.33288 4.8883C5.65988 6.2693 3.99988 8.9943 3.99988 12.0003C3.99988 16.4113 7.58888 20.0003 11.9999 20.0003C16.4109 20.0003 19.9999 16.4113 19.9999 12.0003C19.9999 8.9943 18.3399 6.2693 15.6679 4.8883C15.1769 4.6343 14.9849 4.0313 15.2389 3.5413Z" fill="#231F20"/>
<mask id="mask0_1_151" style="mask-type:alpha" maskUnits="userSpaceOnUse" x="1" y="1" width="21" height="22">
<path fill-rule="evenodd" clip-rule="evenodd" d="M13 12C13 12.553 12.552 13 12 13C11.448 13 11 12.553 11 12V2C11 1.447 11.448 1 12 1C12.552 1 13 1.447 13 2V12ZM15.2389 3.5413C15.4919 3.0503 16.0959 2.8593 16.5859 3.1113C19.9249 4.8383 21.9999 8.2433 21.9999 12.0003C21.9999 17.5133 17.5139 22.0003 11.9999 22.0003C6.48588 22.0003 1.99988 17.5133 1.99988 12.0003C1.99988 8.2433 4.07488 4.8383 7.41488 3.1113C7.90388 2.8583 8.50788 3.0493 8.76188 3.5413C9.01588 4.0313 8.82288 4.6343 8.33288 4.8883C5.65988 6.2693 3.99988 8.9943 3.99988 12.0003C3.99988 16.4113 7.58888 20.0003 11.9999 20.0003C16.4109 20.0003 19.9999 16.4113 19.9999 12.0003C19.9999 8.9943 18.3399 6.2693 15.6679 4.8883C15.1769 4.6343 14.9849 4.0313 15.2389 3.5413Z" fill="white"/>
</mask>
<g mask="url(#mask0_1_151)">
<rect width="24" height="24" fill="#707C97"/>
</g>
</svg>
