<svg width="161" height="40" viewBox="0 0 161 40" fill="none" xmlns="http://www.w3.org/2000/svg">
<path d="M86.2031 13.5625C84.4922 13.5625 83.0469 14.1328 81.875 15.2734C80.7031 16.4141 80.1172 17.7891 80.1172 19.3984C80.1172 21.0078 80.7031 22.3906 81.875 23.5312C83.0469 24.6719 84.4922 25.2422 86.2031 25.2422C86.7812 25.2422 87.3438 25.1641 87.8906 25C88.4375 24.8438 88.875 24.6641 89.2109 24.4688C89.5469 24.2734 89.8594 24.0469 90.1562 23.7891C90.4531 23.5312 90.6406 23.3516 90.7266 23.25C90.8125 23.1484 90.875 23.0625 90.9219 23L89.4766 21.4766L89.3516 21.6406C89.2656 21.7578 89.1328 21.8906 88.9453 22.0469C88.7578 22.2031 88.5391 22.3594 88.2969 22.5156C88.0469 22.6719 87.7422 22.8047 87.3672 22.9141C86.9922 23.0234 86.6094 23.0781 86.2031 23.0781C85.1562 23.0781 84.2812 22.7266 83.5781 22.0234C82.875 21.3203 82.5234 20.4453 82.5234 19.3984C82.5234 18.3516 82.875 17.4766 83.5781 16.7734C84.2812 16.0703 85.1562 15.7188 86.2031 15.7188C86.5781 15.7188 86.9531 15.7812 87.3203 15.8984C87.6797 16.0156 87.9766 16.1406 88.2031 16.2812C88.4219 16.4219 88.6328 16.5781 88.8203 16.7578C89.0078 16.9453 89.1328 17.0703 89.1875 17.1484C89.2422 17.2266 89.2891 17.2812 89.3203 17.3203L90.8438 15.7969L90.6641 15.5625C90.5469 15.4141 90.3594 15.2266 90.0938 15.0078C89.8281 14.7891 89.5312 14.5703 89.1875 14.3516C88.8438 14.1328 88.4141 13.9531 87.8828 13.7969C87.3516 13.6406 86.7891 13.5625 86.2031 13.5625ZM94.6797 19.4062C94.6797 18.375 95.0234 17.5 95.7266 16.7891C96.4219 16.0781 97.2734 15.7188 98.2734 15.7188C99.2734 15.7188 100.125 16.0781 100.82 16.7891C101.523 17.5 101.867 18.375 101.867 19.4062C101.867 20.4375 101.523 21.3125 100.82 22.0156C100.125 22.7266 99.2734 23.0781 98.2734 23.0781C97.2734 23.0781 96.4219 22.7266 95.7266 22.0156C95.0234 21.3125 94.6797 20.4375 94.6797 19.4062ZM92.1953 19.3984C92.1953 21.0078 92.7812 22.3906 93.9531 23.5312C95.125 24.6719 96.5703 25.2422 98.2734 25.2422C99.9766 25.2422 101.422 24.6719 102.594 23.5312C103.766 22.3906 104.352 21.0078 104.352 19.3984C104.352 17.7891 103.766 16.4141 102.594 15.2734C101.422 14.1328 99.9766 13.5625 98.2734 13.5625C96.5703 13.5625 95.125 14.1328 93.9531 15.2734C92.7812 16.4141 92.1953 17.7891 92.1953 19.3984ZM114.203 13.7969V20.9219L108.688 13.7969H106.602V25H109.008V17.8828L114.523 25H116.602V13.7969H114.203ZM118.359 13.7969V15.9609H121.562V25H123.961V15.9609H127.156V13.7969H118.359ZM134.68 20.2812H131.953L133.32 16.6016L134.68 20.2812ZM135.477 22.3594L136.438 25H139L134.594 13.7969H132.039L127.633 25H130.195L131.156 22.3594H135.477ZM146.047 13.5625C144.336 13.5625 142.891 14.1328 141.719 15.2734C140.547 16.4141 139.961 17.7891 139.961 19.3984C139.961 21.0078 140.547 22.3906 141.719 23.5312C142.891 24.6719 144.336 25.2422 146.047 25.2422C146.625 25.2422 147.188 25.1641 147.734 25C148.281 24.8438 148.719 24.6641 149.055 24.4688C149.391 24.2734 149.703 24.0469 150 23.7891C150.297 23.5312 150.484 23.3516 150.57 23.25C150.656 23.1484 150.719 23.0625 150.766 23L149.32 21.4766L149.195 21.6406C149.109 21.7578 148.977 21.8906 148.789 22.0469C148.602 22.2031 148.383 22.3594 148.141 22.5156C147.891 22.6719 147.586 22.8047 147.211 22.9141C146.836 23.0234 146.453 23.0781 146.047 23.0781C145 23.0781 144.125 22.7266 143.422 22.0234C142.719 21.3203 142.367 20.4453 142.367 19.3984C142.367 18.3516 142.719 17.4766 143.422 16.7734C144.125 16.0703 145 15.7188 146.047 15.7188C146.422 15.7188 146.797 15.7812 147.164 15.8984C147.523 16.0156 147.82 16.1406 148.047 16.2812C148.266 16.4219 148.477 16.5781 148.664 16.7578C148.852 16.9453 148.977 17.0703 149.031 17.1484C149.086 17.2266 149.133 17.2812 149.164 17.3203L150.688 15.7969L150.508 15.5625C150.391 15.4141 150.203 15.2266 149.938 15.0078C149.672 14.7891 149.375 14.5703 149.031 14.3516C148.688 14.1328 148.258 13.9531 147.727 13.7969C147.195 13.6406 146.633 13.5625 146.047 13.5625ZM151.562 13.7969V15.9609H154.766V25H157.164V15.9609H160.359V13.7969H151.562Z" fill="#707C97"/>
<path fill-rule="evenodd" clip-rule="evenodd" d="M52 15C52 13.897 51.103 13 50 13C48.897 13 48 13.897 48 15C48 16.103 48.897 17 50 17C51.103 17 52 16.103 52 15ZM54 15C54 17.206 52.206 19 50 19C47.794 19 46 17.206 46 15C46 12.794 47.794 11 50 11C52.206 11 54 12.794 54 15ZM43 28C43 24.14 46.141 21 50 21C53.859 21 57 24.14 57 28C57 28.552 56.553 29 56 29C55.447 29 55 28.552 55 28C55 25.243 52.757 23 50 23C47.243 23 45 25.243 45 28C45 28.552 44.553 29 44 29C43.447 29 43 28.552 43 28Z" fill="#231F20"/>
<mask id="mask0_1_85" style="mask-type:alpha" maskUnits="userSpaceOnUse" x="43" y="11" width="14" height="18">
<path fill-rule="evenodd" clip-rule="evenodd" d="M52 15C52 13.897 51.103 13 50 13C48.897 13 48 13.897 48 15C48 16.103 48.897 17 50 17C51.103 17 52 16.103 52 15ZM54 15C54 17.206 52.206 19 50 19C47.794 19 46 17.206 46 15C46 12.794 47.794 11 50 11C52.206 11 54 12.794 54 15ZM43 28C43 24.14 46.141 21 50 21C53.859 21 57 24.14 57 28C57 28.552 56.553 29 56 29C55.447 29 55 28.552 55 28C55 25.243 52.757 23 50 23C47.243 23 45 25.243 45 28C45 28.552 44.553 29 44 29C43.447 29 43 28.552 43 28Z" fill="white"/>
</mask>
<g mask="url(#mask0_1_85)">
<rect x="38" y="8" width="24" height="24" fill="#707C97"/>
</g>
</svg>
