<svg width="172" height="24" viewBox="0 0 172 24" fill="none" xmlns="http://www.w3.org/2000/svg">
<path d="M49.2031 6.79688V13.9219L43.6875 6.79688H41.6016V18H44.0078V10.8828L49.5234 18H51.6016V6.79688H49.2031ZM56.3203 12.4062C56.3203 11.375 56.6641 10.5 57.3672 9.78906C58.0625 9.07812 58.9141 8.71875 59.9141 8.71875C60.9141 8.71875 61.7656 9.07812 62.4609 9.78906C63.1641 10.5 63.5078 11.375 63.5078 12.4062C63.5078 13.4375 63.1641 14.3125 62.4609 15.0156C61.7656 15.7266 60.9141 16.0781 59.9141 16.0781C58.9141 16.0781 58.0625 15.7266 57.3672 15.0156C56.6641 14.3125 56.3203 13.4375 56.3203 12.4062ZM53.8359 12.3984C53.8359 14.0078 54.4219 15.3906 55.5938 16.5312C56.7656 17.6719 58.2109 18.2422 59.9141 18.2422C61.6172 18.2422 63.0625 17.6719 64.2344 16.5312C65.4062 15.3906 65.9922 14.0078 65.9922 12.3984C65.9922 10.7891 65.4062 9.41406 64.2344 8.27344C63.0625 7.13281 61.6172 6.5625 59.9141 6.5625C58.2109 6.5625 56.7656 7.13281 55.5938 8.27344C54.4219 9.41406 53.8359 10.7891 53.8359 12.3984ZM67.125 6.79688V8.96094H70.3281V18H72.7266V8.96094H75.9219V6.79688H67.125ZM77.6797 18H80.0859V6.79688H77.6797V18ZM82.9609 6.79688V18H85.3672V13.6016H89.9219V11.4375H85.3672V8.96094H91.2031V6.79688H82.9609ZM93.2734 18H95.6797V6.79688H93.2734V18ZM104 6.5625C102.289 6.5625 100.844 7.13281 99.6719 8.27344C98.5 9.41406 97.9141 10.7891 97.9141 12.3984C97.9141 14.0078 98.5 15.3906 99.6719 16.5312C100.844 17.6719 102.289 18.2422 104 18.2422C104.578 18.2422 105.141 18.1641 105.688 18C106.234 17.8438 106.672 17.6641 107.008 17.4688C107.344 17.2734 107.656 17.0469 107.953 16.7891C108.25 16.5312 108.438 16.3516 108.523 16.25C108.609 16.1484 108.672 16.0625 108.719 16L107.273 14.4766L107.148 14.6406C107.062 14.7578 106.93 14.8906 106.742 15.0469C106.555 15.2031 106.336 15.3594 106.094 15.5156C105.844 15.6719 105.539 15.8047 105.164 15.9141C104.789 16.0234 104.406 16.0781 104 16.0781C102.953 16.0781 102.078 15.7266 101.375 15.0234C100.672 14.3203 100.32 13.4453 100.32 12.3984C100.32 11.3516 100.672 10.4766 101.375 9.77344C102.078 9.07031 102.953 8.71875 104 8.71875C104.375 8.71875 104.75 8.78125 105.117 8.89844C105.477 9.01562 105.773 9.14062 106 9.28125C106.219 9.42188 106.43 9.57812 106.617 9.75781C106.805 9.94531 106.93 10.0703 106.984 10.1484C107.039 10.2266 107.086 10.2812 107.117 10.3203L108.641 8.79688L108.461 8.5625C108.344 8.41406 108.156 8.22656 107.891 8.00781C107.625 7.78906 107.328 7.57031 106.984 7.35156C106.641 7.13281 106.211 6.95312 105.68 6.79688C105.148 6.64062 104.586 6.5625 104 6.5625ZM116.398 13.2812H113.672L115.039 9.60156L116.398 13.2812ZM117.195 15.3594L118.156 18H120.719L116.312 6.79688H113.758L109.352 18H111.914L112.875 15.3594H117.195ZM121.203 6.79688V8.96094H124.406V18H126.805V8.96094H130V6.79688H121.203ZM131.758 18H134.164V6.79688H131.758V18ZM138.883 12.4062C138.883 11.375 139.227 10.5 139.93 9.78906C140.625 9.07812 141.477 8.71875 142.477 8.71875C143.477 8.71875 144.328 9.07812 145.023 9.78906C145.727 10.5 146.07 11.375 146.07 12.4062C146.07 13.4375 145.727 14.3125 145.023 15.0156C144.328 15.7266 143.477 16.0781 142.477 16.0781C141.477 16.0781 140.625 15.7266 139.93 15.0156C139.227 14.3125 138.883 13.4375 138.883 12.4062ZM136.398 12.3984C136.398 14.0078 136.984 15.3906 138.156 16.5312C139.328 17.6719 140.773 18.2422 142.477 18.2422C144.18 18.2422 145.625 17.6719 146.797 16.5312C147.969 15.3906 148.555 14.0078 148.555 12.3984C148.555 10.7891 147.969 9.41406 146.797 8.27344C145.625 7.13281 144.18 6.5625 142.477 6.5625C140.773 6.5625 139.328 7.13281 138.156 8.27344C136.984 9.41406 136.398 10.7891 136.398 12.3984ZM158.406 6.79688V13.9219L152.891 6.79688H150.805V18H153.211V10.8828L158.727 18H160.805V6.79688H158.406ZM168.562 14.7188C168.562 15.1406 168.398 15.4844 168.07 15.75C167.742 16.0234 167.297 16.1562 166.719 16.1562C166.219 16.1562 165.734 16.0469 165.281 15.8203C164.82 15.6016 164.523 15.4219 164.391 15.2891C164.258 15.1562 164.156 15.0469 164.086 14.9609L162.641 16.3984L162.82 16.5938C162.922 16.7188 163.094 16.875 163.336 17.0547C163.57 17.2422 163.852 17.4219 164.164 17.5938C164.477 17.7734 164.883 17.9297 165.367 18.0547C165.852 18.1797 166.359 18.2422 166.875 18.2422C168.203 18.2422 169.242 17.9141 169.992 17.2578C170.742 16.6016 171.117 15.7578 171.117 14.7188C171.117 13.9844 170.93 13.3828 170.547 12.8984C170.172 12.4219 169.711 12.0781 169.164 11.8672C168.617 11.6641 168.078 11.4766 167.539 11.3203C167 11.1641 166.539 10.9766 166.164 10.75C165.789 10.5234 165.594 10.2188 165.594 9.84375C165.594 9.51562 165.734 9.22656 166.016 8.99219C166.297 8.75781 166.664 8.64062 167.117 8.64062C167.5 8.64062 167.867 8.73438 168.227 8.90625C168.586 9.08594 168.828 9.22656 168.938 9.33594C169.047 9.44531 169.133 9.53125 169.195 9.60938L170.633 8.08594L170.492 7.92969C170.406 7.82031 170.258 7.6875 170.055 7.53906C169.852 7.39062 169.609 7.24219 169.336 7.10156C169.062 6.96094 168.711 6.83594 168.281 6.72656C167.859 6.61719 167.414 6.57031 166.953 6.57031C165.797 6.57031 164.852 6.89062 164.125 7.53125C163.398 8.17188 163.031 8.94531 163.031 9.85156C163.031 10.5859 163.227 11.1875 163.602 11.6719C163.984 12.1484 164.445 12.4922 164.984 12.7031C165.523 12.9062 166.062 13.0859 166.609 13.2422C167.156 13.3984 167.617 13.5859 167.992 13.8203C168.367 14.0469 168.562 14.3438 168.562 14.7188Z" fill="#707C97"/>
<path fill-rule="evenodd" clip-rule="evenodd" d="M5.5146 16L6.6946 14.818C7.0726 14.44 7.2806 13.938 7.2806 13.404V8.72702C7.2806 7.37002 7.8706 6.07302 8.9006 5.17102C9.9386 4.26102 11.2606 3.86102 12.6376 4.04202C14.9646 4.35102 16.7196 6.45502 16.7196 8.93702V13.404C16.7196 13.938 16.9276 14.44 17.3046 14.817L18.4856 16H5.5146ZM13.9996 18.341C13.9996 19.24 13.0836 20 11.9996 20C10.9156 20 9.9996 19.24 9.9996 18.341V18H13.9996V18.341ZM20.5206 15.208L18.7196 13.404V8.93702C18.7196 5.45602 16.2176 2.49902 12.8996 2.06002C10.9776 1.80402 9.0376 2.39102 7.5826 3.66702C6.1186 4.94902 5.2806 6.79302 5.2806 8.72702L5.2796 13.404L3.4786 15.208C3.0096 15.678 2.8706 16.377 3.1246 16.99C3.3796 17.604 3.9726 18 4.6366 18H7.9996V18.341C7.9996 20.359 9.7936 22 11.9996 22C14.2056 22 15.9996 20.359 15.9996 18.341V18H19.3626C20.0266 18 20.6186 17.604 20.8726 16.991C21.1276 16.377 20.9896 15.677 20.5206 15.208Z" fill="#231F20"/>
<mask id="mask0_1_101" style="mask-type:alpha" maskUnits="userSpaceOnUse" x="2" y="2" width="19" height="20">
<path fill-rule="evenodd" clip-rule="evenodd" d="M5.5146 16L6.6946 14.818C7.0726 14.44 7.2806 13.938 7.2806 13.404V8.72702C7.2806 7.37002 7.8706 6.07302 8.9006 5.17102C9.9386 4.26102 11.2606 3.86102 12.6376 4.04202C14.9646 4.35102 16.7196 6.45502 16.7196 8.93702V13.404C16.7196 13.938 16.9276 14.44 17.3046 14.817L18.4856 16H5.5146ZM13.9996 18.341C13.9996 19.24 13.0836 20 11.9996 20C10.9156 20 9.9996 19.24 9.9996 18.341V18H13.9996V18.341ZM20.5206 15.208L18.7196 13.404V8.93702C18.7196 5.45602 16.2176 2.49902 12.8996 2.06002C10.9776 1.80402 9.0376 2.39102 7.5826 3.66702C6.1186 4.94902 5.2806 6.79302 5.2806 8.72702L5.2796 13.404L3.4786 15.208C3.0096 15.678 2.8706 16.377 3.1246 16.99C3.3796 17.604 3.9726 18 4.6366 18H7.9996V18.341C7.9996 20.359 9.7936 22 11.9996 22C14.2056 22 15.9996 20.359 15.9996 18.341V18H19.3626C20.0266 18 20.6186 17.604 20.8726 16.991C21.1276 16.377 20.9896 15.677 20.5206 15.208Z" fill="white"/>
</mask>
<g mask="url(#mask0_1_101)">
<rect width="24" height="24" fill="#707C97"/>
</g>
</svg>
